<?xml version="1.0" encoding="utf-8"?>
<!-- Generator: Adobe Illustrator 23.0.2, SVG Export Plug-In . SVG Version: 6.00 Build 0)  -->
<svg version="1.1" id="Layer_1" xmlns="http://www.w3.org/2000/svg" xmlns:xlink="http://www.w3.org/1999/xlink" x="0px" y="0px"
	 viewBox="63 44 55 55" style="enable-background:new 0 0 141.677 142.308;" xml:space="preserve">
<style type="text/css">
	.st0{fill:#3E1300;}
	.st1{fill:#C49B72;}
	.st2{fill:#FFFFFF;}
	.st3{fill:#4C3F3A;}
	.st4{fill:#FCCCBB;}
	.st5{fill:#EED7B3;}
	.st6{fill:#FFC20E;}
	.st7{fill:#FFCB05;}
	.st8{fill:#FDD1B0;}
	.st9{fill:none;}
	.st10{fill:#A37036;}
	.st11{fill:#F5949F;}
	.st12{fill:#F8971D;}
	.st13{fill:#F99D1C;}
	.st14{fill:#F9CBDF;}
	.st15{fill:#F69CA3;}
	.st16{fill:#F69D98;}
	.st17{fill:#FEE6D5;}
	.st18{fill:#FBC0A8;}
	.st19{fill:#9AC1E7;}
	.st20{fill:#AD8D52;}
	.st21{fill:#FDCFAA;}
	.st22{fill:#F59293;}
	.st23{fill:#F5929E;}
	.st24{fill:#AD8855;}
	.st25{fill:#6692CC;}
	.st26{fill:#A5DFF9;}
	.st27{fill:#639BB3;}
	.st28{fill:#A38874;}
	.st29{fill:#FFF689;}
	.st30{fill:#ED1C24;}
	.st31{fill:#F8B667;}
	.st32{fill:#B37630;}
	.st33{fill:#F596A0;}
	.st34{fill:#70430B;}
	.st35{fill:#F38598;}
	.st36{fill:#F7A1A0;}
	.st37{fill:#FCC08D;}
	.st38{fill:#A8A8A8;}
	.st39{fill:#82C341;}
	.st40{fill:#FEC872;}
	.st41{fill:#705733;}
</style>
<g>
	<path class="st0" d="M117.215,79.548c-0.276-7.337-3.553-14.16-9.05-18.947c0.687-1.043,1.062-2.157,1.096-3.283
		c0.044-1.427-0.435-3.562-2.969-5.628c-1.267-1.032-2.792-1.355-4.214-0.894c-0.56-0.963-1.362-1.873-2.398-2.717
		c-1.56-1.27-3.453-1.546-5.161-0.756c-2.184-2.358-5.616-3.025-9.513-1.779c-2.39,0.765-3.333,2.33-3.703,3.509
		c-0.544,1.732-0.237,3.86,0.912,6.343c-4.261,1.392-8.101,3.839-11.19,7.146c-4.848,5.191-7.371,11.946-7.104,19.019
		c0.635,16.832,18.103,16.832,24.679,16.832c1.212,0,2.48-0.026,3.875-0.078C101.356,97.979,117.888,97.354,117.215,79.548z
		 M97.797,50.392c1.629,1.328,2.381,2.722,2.233,4.144c-0.034,0.336,0.161,0.654,0.476,0.774c0.316,0.12,0.674,0.014,0.87-0.261
		c0.488-0.676,1.232-1.481,2.005-1.481c0.331,0,0.666,0.143,1.027,0.436c1.276,1.04,1.906,2.125,1.873,3.224
		c-0.028,0.907-0.514,1.826-1.413,2.703c-4.302-2.94-9.574-4.576-15.242-4.355c-1.261,0.048-2.505,0.186-3.723,0.412
		c-1.086-1.799-2.278-4.371-1.754-6.039c0.234-0.747,0.812-1.257,1.766-1.562c3.558-1.137,6.123-0.297,7.384,2.456
		c0.105,0.23,0.319,0.39,0.568,0.427c0.249,0.035,0.5-0.054,0.668-0.244C95.691,49.715,96.69,49.489,97.797,50.392z M89.683,57.064
		c0.307-0.012,0.614-0.018,0.919-0.018c12.775,0,23.157,9.933,23.634,22.615c0.466,12.346-8.025,15.151-21.874,15.675
		c-1.351,0.051-2.583,0.076-3.763,0.076c-14.642,0-21.334-4.306-21.699-13.963c-0.237-6.273,2.002-12.265,6.304-16.871
		C77.507,59.971,83.359,57.303,89.683,57.064z"/>
	<path class="st30" d="M94.535,51.023c-0.167,0.189-0.419,0.279-0.668,0.244c-0.249-0.037-0.464-0.197-0.568-0.427
		c-1.261-2.753-3.826-3.593-7.384-2.456c-0.954,0.306-1.532,0.816-1.766,1.562c-0.524,1.668,0.669,4.24,1.754,6.039
		c1.218-0.226,2.462-0.365,3.723-0.412c5.668-0.22,10.94,1.415,15.242,4.355c0.898-0.876,1.385-1.796,1.413-2.703
		c0.033-1.099-0.597-2.184-1.873-3.224c-0.361-0.293-0.696-0.436-1.027-0.436c-0.773,0-1.517,0.806-2.005,1.481
		c-0.197,0.275-0.554,0.381-0.87,0.261c-0.315-0.12-0.51-0.437-0.476-0.774c0.148-1.422-0.603-2.816-2.233-4.144
		C96.69,49.489,95.691,49.715,94.535,51.023z"/>
	<path class="st2" d="M66.9,81.448c0.365,9.657,7.057,13.963,21.699,13.963c1.18,0,2.411-0.025,3.763-0.076
		c13.849-0.524,22.34-3.329,21.874-15.675c-0.478-12.682-10.859-22.615-23.634-22.615c-0.305,0-0.612,0.006-0.919,0.018
		c-6.324,0.239-12.175,2.907-16.478,7.514C68.903,69.184,66.663,75.175,66.9,81.448z M98.024,80.027
		c-0.073-1.858,1.379-3.424,3.237-3.495c1.86-0.072,3.422,1.376,3.495,3.236c0.071,1.858-1.376,3.423-3.234,3.495
		C99.662,83.334,98.095,81.885,98.024,80.027z M107.105,83.992c1.8,0.077,3.198,1.605,3.121,3.414
		c-0.077,1.807-1.599,3.211-3.399,3.134c-1.801-0.076-3.198-1.605-3.122-3.412C103.782,85.32,105.304,83.916,107.105,83.992z
		 M84.974,82.733c1.193-1.292,3.513-2.144,6.054-2.224c3.973-0.128,7.17,1.574,7.274,3.851c0.028,0.587-0.165,1.109-0.571,1.548
		c-0.357,0.386-0.887,0.708-1.588,0.966c0.535,1.159,0.802,2.383,0.441,3.491c-0.553,1.699-2.396,2.745-5.478,3.109
		c-0.548,0.065-1.059,0.097-1.53,0.097c-1.953,0-3.239-0.555-3.83-1.659c-0.691-1.287-0.223-3.069,0.583-4.74
		c-1.422-0.451-2.152-1.229-2.203-2.353C84.091,84.092,84.385,83.37,84.974,82.733z M79.653,77.368
		c1.86-0.072,3.424,1.377,3.496,3.236c0.071,1.858-1.378,3.424-3.236,3.495c-1.858,0.072-3.423-1.376-3.495-3.235
		C76.347,79.005,77.795,77.439,79.653,77.368z M75.332,85.256c1.801,0.077,3.199,1.605,3.122,3.413
		c-0.077,1.809-1.599,3.212-3.4,3.136c-1.801-0.076-3.198-1.605-3.121-3.413C72.011,86.583,73.532,85.179,75.332,85.256z"/>
	<path class="st0" d="M104.756,79.767c-0.073-1.86-1.635-3.308-3.495-3.236c-1.858,0.072-3.31,1.637-3.237,3.495
		c0.071,1.858,1.638,3.307,3.498,3.236C103.38,83.19,104.828,81.625,104.756,79.767z M102.736,80.955
		c-0.719,0.027-1.325-0.533-1.354-1.252c-0.026-0.72,0.533-1.324,1.252-1.352c0.719-0.027,1.325,0.533,1.353,1.251
		C104.015,80.321,103.456,80.927,102.736,80.955z"/>
	<path class="st0" d="M79.913,84.098c1.858-0.071,3.307-1.637,3.236-3.495c-0.073-1.859-1.637-3.308-3.496-3.236
		c-1.858,0.071-3.306,1.637-3.234,3.495C76.49,82.722,78.055,84.17,79.913,84.098z M81.39,79.172
		c0.718-0.027,1.324,0.533,1.351,1.253c0.028,0.718-0.533,1.324-1.251,1.352c-0.719,0.028-1.325-0.533-1.353-1.251
		C80.11,79.806,80.671,79.2,81.39,79.172z"/>
	<path class="st4" d="M71.933,88.391c-0.077,1.808,1.319,3.337,3.121,3.413c1.801,0.077,3.323-1.327,3.4-3.136
		c0.077-1.809-1.321-3.336-3.122-3.413C73.532,85.179,72.011,86.583,71.933,88.391z"/>
	<path class="st4" d="M103.705,87.128c-0.076,1.808,1.321,3.336,3.122,3.412c1.8,0.077,3.322-1.327,3.399-3.134
		c0.077-1.81-1.321-3.338-3.121-3.414C105.304,83.916,103.782,85.32,103.705,87.128z"/>
	<path class="st2" d="M102.635,78.351c-0.719,0.028-1.279,0.632-1.252,1.352c0.029,0.719,0.635,1.28,1.354,1.252
		c0.719-0.028,1.279-0.634,1.251-1.353C103.96,78.883,103.354,78.323,102.635,78.351z"/>
	<path class="st2" d="M81.49,81.777c0.718-0.029,1.279-0.634,1.251-1.352c-0.028-0.72-0.633-1.28-1.351-1.253
		c-0.719,0.028-1.28,0.634-1.252,1.354C80.165,81.244,80.771,81.805,81.49,81.777z"/>
	<path class="st30" d="M90.261,87.639c-0.916,0-1.722-0.05-2.43-0.145c-0.77,1.482-1.206,2.903-0.77,3.714
		c0.518,0.965,2.391,0.96,3.872,0.786c1.686-0.199,3.79-0.723,4.235-2.089c0.246-0.756-0.008-1.693-0.486-2.634
		c-0.964,0.191-2.115,0.31-3.456,0.353C90.897,87.633,90.575,87.639,90.261,87.639z"/>
	<path class="st7" d="M84.837,84.787c0.065,1.42,1.89,2.14,5.424,2.14c0.306,0,0.622-0.006,0.941-0.016
		c3.946-0.125,5.444-0.877,6.007-1.485c0.276-0.299,0.401-0.636,0.383-1.032c-0.081-1.752-2.841-3.178-6.154-3.178
		c-0.128,0-0.258,0.002-0.387,0.006c-2.358,0.074-4.486,0.839-5.554,1.995C85.033,83.717,84.812,84.245,84.837,84.787z"/>
	<path class="st0" d="M86.329,87.172c-0.805,1.672-1.273,3.453-0.583,4.74c0.592,1.103,1.877,1.659,3.83,1.659
		c0.471,0,0.981-0.032,1.53-0.097c3.082-0.364,4.925-1.41,5.478-3.109c0.361-1.109,0.094-2.332-0.441-3.491
		c0.701-0.258,1.231-0.58,1.588-0.966c0.406-0.44,0.598-0.961,0.571-1.548c-0.104-2.277-3.302-3.979-7.274-3.851
		c-2.541,0.08-4.862,0.932-6.054,2.224c-0.589,0.637-0.882,1.36-0.848,2.087C84.177,85.943,84.907,86.722,86.329,87.172z
		 M91.438,81.215c3.313,0,6.073,1.426,6.154,3.178c0.018,0.396-0.107,0.734-0.383,1.032c-0.563,0.609-2.061,1.36-6.007,1.485
		c-0.319,0.01-0.635,0.016-0.941,0.016c-3.534,0-5.359-0.72-5.424-2.14c-0.025-0.542,0.197-1.07,0.66-1.571
		c1.068-1.156,3.196-1.92,5.554-1.995C91.18,81.217,91.31,81.215,91.438,81.215z M95.167,89.904
		c-0.444,1.366-2.548,1.89-4.235,2.089c-1.481,0.174-3.354,0.18-3.872-0.786c-0.436-0.812-0.001-2.232,0.77-3.714
		c0.708,0.095,1.514,0.145,2.43,0.145c0.315,0,0.636-0.006,0.965-0.016c1.341-0.043,2.492-0.162,3.456-0.353
		C95.159,88.211,95.413,89.148,95.167,89.904z"/>
</g></svg>