<?xml version="1.0" encoding="iso-8859-1"?>
<!-- Generator: Adobe Illustrator 19.0.0, SVG Export Plug-In . SVG Version: 6.00 Build 0)  -->
<svg version="1.1" id="Capa_1" xmlns="http://www.w3.org/2000/svg" xmlns:xlink="http://www.w3.org/1999/xlink" x="0px" y="0px"
	 viewBox="0 0 480 480" style="enable-background:new 0 0 480 480;" xml:space="preserve">
<g>
	<rect x="470" y="210" style="fill:#C8B2A8;" width="10" height="20"/>
	<rect y="210" style="fill:#C8B2A8;" width="10" height="20"/>
	<rect x="410" y="210" style="fill:#C8B2A8;" width="20" height="20"/>
	<rect x="170" y="210" style="fill:#C8B2A8;" width="20" height="20"/>
	<rect x="50" y="210" style="fill:#C8B2A8;" width="20" height="20"/>
	<rect x="110" y="210" style="fill:#C8B2A8;" width="20" height="20"/>
	<rect x="290" y="210" style="fill:#C8B2A8;" width="20" height="20"/>
	<rect x="350" y="210" style="fill:#C8B2A8;" width="20" height="20"/>
	<rect x="230" y="210" style="fill:#C8B2A8;" width="20" height="20"/>
	<rect x="110" y="270" style="fill:#C8B2A8;" width="20" height="20"/>
	<rect x="170" y="270" style="fill:#C8B2A8;" width="20" height="20"/>
	<rect x="50" y="270" style="fill:#C8B2A8;" width="20" height="20"/>
	<rect y="270" style="fill:#C8B2A8;" width="10" height="20"/>
	<rect x="290" y="270" style="fill:#C8B2A8;" width="20" height="20"/>
	<rect x="470" y="270" style="fill:#C8B2A8;" width="10" height="20"/>
	<rect x="410" y="270" style="fill:#C8B2A8;" width="20" height="20"/>
	<rect x="230" y="270" style="fill:#C8B2A8;" width="20" height="20"/>
	<rect x="350" y="270" style="fill:#C8B2A8;" width="20" height="20"/>
	<polygon style="fill:#622f00;" points="50,230 50,210 50,190 29.998,170 10,190 10,210 10,230 10,270 10,290 10,310 50,310 50,290 
		50,270 	"/>
	<polygon style="fill:#622f00;" points="110,230 110,210 110,190 89.998,170 70,190 70,210 70,230 70,270 70,290 70,310 110,310 
		110,290 110,270 	"/>
	<polygon style="fill:#622f00;" points="170,230 170,210 170,190 149.998,170 130,190 130,210 130,230 130,270 130,290 130,310 
		170,310 170,290 170,270 	"/>
	<polygon style="fill:#622f00;" points="230,230 230,210 230,190 209.998,170 190,190 190,210 190,230 190,270 190,290 190,310 
		230,310 230,290 230,270 	"/>
	<polygon style="fill:#622f00;" points="290,230 290,210 290,190 269.998,170 250,190 250,210 250,230 250,270 250,290 250,310 
		290,310 290,290 290,270 	"/>
	<polygon style="fill:#622f00;" points="350,230 350,210 350,190 329.998,170 310,190 310,210 310,230 310,270 310,290 310,310 
		350,310 350,290 350,270 	"/>
	<polygon style="fill:#622f00;" points="410,230 410,210 410,190 389.998,170 370,190 370,210 370,230 370,270 370,290 370,310 
		410,310 410,290 410,270 	"/>
	<polygon style="fill:#622f00;" points="470,210 470,190 449.998,170 430,190 430,210 430,230 430,270 430,290 430,310 470,310 
		470,290 470,270 470,230 	"/>
</g>
</svg>
