<?xml version="1.0" encoding="utf-8"?>
<!-- Generator: Adobe Illustrator 23.0.2, SVG Export Plug-In . SVG Version: 6.00 Build 0)  -->
<svg version="1.1" id="Layer_1" xmlns="http://www.w3.org/2000/svg" xmlns:xlink="http://www.w3.org/1999/xlink" x="0px" y="0px"
	 viewBox="38.8 38 58 58" style="enable-background:new 0 0 141.677 142.308;" xml:space="preserve">
<style type="text/css">
	.st0{fill:#3E1300;}
	.st1{fill:#C49B72;}
	.st2{fill:#FFFFFF;}
	.st3{fill:#4C3F3A;}
	.st4{fill:#FCCCBB;}
	.st5{fill:#EED7B3;}
	.st6{fill:#FFC20E;}
	.st7{fill:#FFCB05;}
	.st8{fill:#FDD1B0;}
	.st9{fill:none;}
	.st10{fill:#A37036;}
	.st11{fill:#F5949F;}
	.st12{fill:#F8971D;}
	.st13{fill:#F99D1C;}
	.st14{fill:#F9CBDF;}
	.st15{fill:#F69CA3;}
	.st16{fill:#F69D98;}
	.st17{fill:#FEE6D5;}
	.st18{fill:#FBC0A8;}
	.st19{fill:#9AC1E7;}
	.st20{fill:#AD8D52;}
	.st21{fill:#FDCFAA;}
	.st22{fill:#F59293;}
	.st23{fill:#F5929E;}
	.st24{fill:#AD8855;}
	.st25{fill:#6692CC;}
	.st26{fill:#A5DFF9;}
	.st27{fill:#639BB3;}
	.st28{fill:#A38874;}
	.st29{fill:#FFF689;}
	.st30{fill:#ED1C24;}
	.st31{fill:#F8B667;}
	.st32{fill:#B37630;}
	.st33{fill:#F596A0;}
	.st34{fill:#70430B;}
	.st35{fill:#F38598;}
	.st36{fill:#F7A1A0;}
	.st37{fill:#FCC08D;}
	.st38{fill:#A8A8A8;}
	.st39{fill:#82C341;}
	.st40{fill:#FEC872;}
	.st41{fill:#705733;}
</style>
<g>
	<path class="st0" d="M99.716,71.634c1.324-2.007,2.043-4.376,2.043-6.786c0-3.273-1.326-6.408-3.665-8.733
		c0.256-1.41,0.308-2.647,0.153-3.687c-0.096-0.641-0.465-1.208-1.006-1.552c-0.205-0.131-2.082-1.283-4.901-1.283
		c-0.24,0-0.483,0.01-0.731,0.029c-1.884-4.569-6.407-7.662-11.412-7.662c-1.519,0-3.041,0.289-4.464,0.843
		c-2.328-2.714-5.742-4.303-9.356-4.303c-3.613,0-7.041,1.597-9.371,4.32c-1.086-0.308-2.206-0.464-3.342-0.464
		c-4.95,0-9.327,2.909-11.281,7.365c-0.538-0.086-1.072-0.13-1.595-0.13c-2.819,0-4.695,1.152-4.895,1.28
		c-0.546,0.348-0.915,0.914-1.011,1.558c-0.163,1.097-0.096,2.413,0.199,3.924c-1.43,2.063-2.182,4.475-2.182,7.019
		c0,1.134,0.155,2.254,0.462,3.34c-1.611,2.134-2.489,4.738-2.489,7.42c0,3.073,1.123,5.985,3.172,8.255
		c1.008,5.873,6.153,10.242,12.166,10.242c0.867,0,1.75-0.099,2.634-0.295c4.975,2.25,11.22,2.517,15.542,2.517
		c1.212,0,2.479-0.026,3.875-0.078c6.633-0.251,13.406-0.935,18.228-4.127c1.018,0.267,2.061,0.402,3.107,0.402
		c6.809,0,12.347-5.539,12.347-12.348C101.943,76.166,101.159,73.697,99.716,71.634z M89.596,88.067
		c-0.685,0-1.351-0.079-1.994-0.219c2.588-2.53,4.119-6.257,3.91-11.785c-0.52-13.807-12.111-24.567-26.099-24.03
		c-6.718,0.253-12.938,3.089-17.511,7.986c-4.575,4.898-6.956,11.271-6.704,17.945c0.216,5.729,2.487,9.356,5.824,11.643
		c-0.268,0.023-0.537,0.041-0.811,0.041c-4.801,0-8.803-3.596-9.31-8.364c-0.018-0.173-0.096-0.333-0.22-0.455
		c-1.822-1.779-2.825-4.156-2.825-6.696c0-2.397,0.914-4.682,2.572-6.434c0.202-0.213,0.26-0.523,0.15-0.794
		c-0.461-1.132-0.695-2.32-0.695-3.533c0-1.75,0.477-3.393,1.315-4.8c1.18,3.746,3.102,7.294,3.227,7.523
		c0.133,0.242,0.385,0.388,0.654,0.388c0.044,0,0.087-0.003,0.132-0.012c0.315-0.057,0.559-0.309,0.606-0.626
		c0.686-4.68,6.857-9.743,6.92-9.793c0.162-0.132,0.261-0.326,0.274-0.534c0.012-0.209-0.064-0.414-0.209-0.564
		c-1.306-1.347-2.669-2.342-4.077-2.987c1.182-3.868,4.784-6.628,8.942-6.628c1.328,0,2.62,0.28,3.842,0.831
		c0.34,0.154,0.74,0.032,0.938-0.283c1.728-2.757,4.693-4.404,7.932-4.404c3.3,0,6.295,1.695,8.011,4.534
		c0.212,0.351,0.669,0.465,1.02,0.254c1.455-0.869,3.11-1.329,4.788-1.329c4.24,0,7.826,2.835,8.975,6.707
		c-1.681,0.611-3.301,1.714-4.843,3.304c-0.146,0.15-0.221,0.354-0.209,0.564c0.013,0.208,0.112,0.402,0.274,0.534
		c0.063,0.05,6.233,5.113,6.919,9.793c0.047,0.317,0.29,0.569,0.606,0.626c0.044,0.008,0.088,0.012,0.132,0.012
		c0.269,0,0.522-0.146,0.655-0.388c0.128-0.235,2.155-3.972,3.323-7.83c1.694,1.705,2.748,4.04,2.748,6.582
		c0,2.34-0.878,4.585-2.471,6.321c-0.266,0.291-0.261,0.739,0.014,1.022c1.703,1.759,2.641,4.07,2.641,6.509
		C98.961,83.866,94.76,88.067,89.596,88.067z M42.687,77.908c-0.237-6.273,2.002-12.265,6.304-16.871
		c4.303-4.607,10.156-7.275,16.478-7.514c0.307-0.012,0.614-0.017,0.919-0.017c12.775,0,23.156,9.933,23.634,22.615
		c0.466,12.346-8.025,15.151-21.874,15.675c-1.351,0.051-2.583,0.076-3.763,0.076C49.744,91.871,43.053,87.565,42.687,77.908z
		 M37.793,53.232c0.495-0.236,1.574-0.657,2.997-0.657c2.201,0,4.342,0.961,6.374,2.86c-1.436,1.274-4.894,4.602-6.295,8.239
		C39.639,61.12,37.555,56.28,37.793,53.232z M92.261,63.673c-1.401-3.637-4.858-6.964-6.294-8.238
		c2.031-1.899,4.173-2.86,6.374-2.86c1.424,0,2.504,0.421,2.997,0.657C95.575,56.278,93.491,61.119,92.261,63.673z"/>
	<path class="st34" d="M96.32,72.192c-0.275-0.283-0.281-0.731-0.014-1.022c1.593-1.736,2.471-3.981,2.471-6.321
		c0-2.543-1.054-4.877-2.748-6.582c-1.169,3.857-3.195,7.595-3.323,7.83c-0.133,0.242-0.385,0.388-0.655,0.388
		c-0.044,0-0.087-0.003-0.132-0.012c-0.316-0.057-0.559-0.309-0.606-0.626c-0.686-4.68-6.857-9.743-6.919-9.793
		c-0.162-0.132-0.261-0.326-0.274-0.534c-0.012-0.209,0.064-0.414,0.209-0.564c1.542-1.59,3.162-2.693,4.843-3.304
		c-1.149-3.872-4.735-6.707-8.975-6.707c-1.678,0-3.334,0.459-4.788,1.329c-0.351,0.211-0.808,0.097-1.02-0.254
		c-1.716-2.839-4.711-4.534-8.011-4.534c-3.239,0-6.203,1.646-7.932,4.404c-0.198,0.316-0.598,0.438-0.938,0.283
		c-1.223-0.551-2.515-0.831-3.842-0.831c-4.158,0-7.76,2.76-8.942,6.628c1.408,0.645,2.771,1.64,4.077,2.987
		c0.146,0.15,0.221,0.354,0.209,0.564c-0.013,0.208-0.112,0.402-0.274,0.534c-0.063,0.05-6.234,5.113-6.92,9.793
		c-0.047,0.317-0.291,0.569-0.606,0.626c-0.045,0.008-0.088,0.012-0.132,0.012c-0.269,0-0.522-0.146-0.654-0.388
		c-0.125-0.229-2.047-3.777-3.227-7.523c-0.838,1.407-1.315,3.05-1.315,4.8c0,1.213,0.233,2.401,0.695,3.533
		c0.111,0.271,0.052,0.581-0.15,0.794c-1.659,1.751-2.572,4.036-2.572,6.434c0,2.539,1.003,4.917,2.825,6.696
		c0.124,0.122,0.201,0.282,0.22,0.455c0.507,4.768,4.509,8.364,9.31,8.364c0.274,0,0.543-0.018,0.811-0.041
		c-3.336-2.286-5.607-5.914-5.824-11.643c-0.252-6.674,2.129-13.048,6.704-17.945c4.573-4.897,10.792-7.732,17.511-7.986
		c13.989-0.537,25.58,10.223,26.099,24.03c0.209,5.528-1.322,9.254-3.91,11.785c0.643,0.14,1.31,0.219,1.994,0.219
		c5.164,0,9.365-4.201,9.365-9.366C98.961,76.262,98.023,73.951,96.32,72.192z"/>
	<path class="st6" d="M64.386,91.871c1.18,0,2.411-0.025,3.763-0.076c13.849-0.524,22.34-3.329,21.874-15.675
		c-0.478-12.682-10.859-22.615-23.634-22.615c-0.305,0-0.612,0.006-0.919,0.017c-6.323,0.239-12.175,2.907-16.478,7.514
		c-4.302,4.606-6.541,10.597-6.304,16.871C43.053,87.565,49.744,91.871,64.386,91.871z M55.701,80.558
		c-1.859,0.072-3.424-1.376-3.496-3.235c-0.071-1.858,1.376-3.424,3.235-3.495c1.859-0.072,3.424,1.377,3.495,3.236
		C59.007,78.921,57.559,80.486,55.701,80.558z M64.67,79.451c0.594-0.434,1.39-0.691,2.241-0.724l0.186-0.003
		c1.738,0,3.136,0.967,3.183,2.2c0.025,0.647-0.312,1.259-0.948,1.724c-0.594,0.434-1.391,0.692-2.242,0.725l-0.185,0.003
		c-1.739,0-3.137-0.966-3.184-2.2C63.697,80.529,64.033,79.917,64.67,79.451z M71.933,86.694c-0.581,0.633-1.374,1.002-2.232,1.038
		c-1.006,0.051-1.933-0.386-2.554-1.092c-0.068,0.092-0.141,0.182-0.22,0.267c-0.582,0.633-1.375,1.002-2.233,1.038
		c-0.047,0.002-0.092,0.003-0.139,0.003c-0.808,0-1.575-0.299-2.174-0.848c-0.633-0.581-1.002-1.375-1.038-2.233
		c-0.016-0.393,0.289-0.725,0.682-0.741c0.4-0.015,0.725,0.289,0.741,0.682c0.02,0.479,0.225,0.92,0.578,1.245
		c0.353,0.325,0.819,0.502,1.29,0.471c0.479-0.02,0.92-0.226,1.244-0.578c0.324-0.353,0.492-0.811,0.471-1.289
		c0-0.01-0.001-0.02-0.001-0.03c0-0.38,0.299-0.695,0.682-0.712c0.403-0.024,0.725,0.288,0.742,0.681
		c0.02,0.479,0.226,0.921,0.579,1.245c0.353,0.324,0.812,0.5,1.29,0.471c0.479-0.02,0.921-0.226,1.245-0.579
		c0.324-0.352,0.491-0.811,0.47-1.288c-0.017-0.393,0.288-0.725,0.681-0.742c0.377-0.035,0.725,0.288,0.742,0.68
		C72.814,85.241,72.514,86.062,71.933,86.694z M73.812,76.486c-0.073-1.858,1.378-3.424,3.237-3.495
		c1.859-0.072,3.422,1.376,3.494,3.236c0.072,1.858-1.375,3.423-3.234,3.495C75.449,79.793,73.882,78.345,73.812,76.486z
		 M85.281,85.128c-0.077,1.809-1.599,3.212-3.4,3.136c-1.801-0.076-3.198-1.605-3.121-3.413c0.077-1.809,1.599-3.212,3.399-3.136
		C83.961,81.792,85.359,83.32,85.281,85.128z M50.842,88.264c-1.801-0.076-3.199-1.605-3.122-3.413
		c0.077-1.809,1.599-3.212,3.4-3.136c1.801,0.077,3.198,1.605,3.121,3.413C54.164,86.937,52.642,88.341,50.842,88.264z"/>
	<path class="st3" d="M66.906,82.665l0.157-0.003c0.712-0.027,1.368-0.236,1.849-0.588c0.439-0.321,0.672-0.719,0.656-1.123
		c-0.031-0.836-1.14-1.515-2.471-1.515l-0.159,0.003c-0.711,0.027-1.368,0.235-1.849,0.587c-0.439,0.32-0.672,0.719-0.656,1.123
		C64.465,81.985,65.574,82.665,66.906,82.665z"/>
	<path class="st0" d="M66.906,83.377l0.185-0.003c0.851-0.033,1.648-0.291,2.242-0.725c0.636-0.465,0.973-1.078,0.948-1.724
		c-0.047-1.233-1.445-2.2-3.183-2.2l-0.186,0.003c-0.851,0.033-1.647,0.29-2.241,0.724c-0.637,0.465-0.973,1.078-0.948,1.725
		C63.768,82.41,65.167,83.377,66.906,83.377z M65.09,80.026c0.481-0.351,1.138-0.56,1.849-0.587l0.159-0.003
		c1.331,0,2.439,0.679,2.471,1.515c0.016,0.403-0.217,0.802-0.656,1.123c-0.481,0.352-1.138,0.561-1.849,0.588l-0.157,0.003
		c-1.331,0-2.441-0.68-2.472-1.516C64.418,80.746,64.651,80.347,65.09,80.026z"/>
	<path class="st0" d="M80.543,76.227c-0.072-1.86-1.635-3.308-3.494-3.236c-1.859,0.072-3.31,1.637-3.237,3.495
		c0.07,1.858,1.637,3.307,3.497,3.236C79.168,79.649,80.615,78.085,80.543,76.227z M77.17,76.162
		c-0.027-0.72,0.532-1.324,1.252-1.352c0.718-0.027,1.324,0.533,1.353,1.251c0.028,0.719-0.533,1.325-1.252,1.353
		C77.804,77.441,77.198,76.881,77.17,76.162z"/>
	<path class="st0" d="M55.44,73.827c-1.859,0.071-3.307,1.637-3.235,3.495c0.072,1.859,1.637,3.307,3.496,3.235
		c1.858-0.071,3.306-1.637,3.235-3.495C58.864,75.204,57.299,73.755,55.44,73.827z M58.529,76.884
		c0.028,0.718-0.533,1.324-1.252,1.352c-0.719,0.028-1.324-0.533-1.352-1.251c-0.029-0.72,0.532-1.326,1.251-1.354
		C57.896,75.604,58.501,76.164,58.529,76.884z"/>
	<path class="st35" d="M54.241,85.128c0.077-1.809-1.32-3.336-3.121-3.413c-1.801-0.077-3.323,1.327-3.4,3.136
		c-0.077,1.808,1.32,3.337,3.122,3.413C52.642,88.341,54.164,86.937,54.241,85.128z"/>
	<path class="st35" d="M78.761,84.851c-0.077,1.808,1.319,3.337,3.121,3.413c1.801,0.077,3.323-1.327,3.4-3.136
		c0.077-1.809-1.321-3.336-3.122-3.413C80.359,81.639,78.838,83.042,78.761,84.851z"/>
	<path class="st2" d="M79.775,76.061c-0.029-0.718-0.634-1.279-1.353-1.251c-0.72,0.028-1.279,0.632-1.252,1.352
		c0.028,0.719,0.634,1.28,1.353,1.252C79.242,77.386,79.803,76.78,79.775,76.061z"/>
	<path class="st2" d="M55.925,76.985c0.028,0.718,0.632,1.279,1.352,1.251c0.719-0.029,1.279-0.634,1.252-1.352
		c-0.028-0.72-0.633-1.28-1.352-1.253C56.457,75.659,55.897,76.265,55.925,76.985z"/>
	<path class="st0" d="M72.036,83.701c-0.392,0.017-0.698,0.348-0.681,0.742c0.02,0.478-0.147,0.936-0.47,1.288
		c-0.324,0.353-0.766,0.558-1.245,0.579c-0.478,0.029-0.936-0.147-1.29-0.471c-0.353-0.324-0.558-0.766-0.579-1.245
		c-0.017-0.393-0.339-0.705-0.742-0.681c-0.383,0.017-0.682,0.332-0.682,0.712c0,0.01,0.001,0.02,0.001,0.03
		c0.02,0.478-0.147,0.936-0.471,1.289c-0.324,0.352-0.765,0.558-1.244,0.578c-0.471,0.032-0.937-0.146-1.29-0.471
		c-0.353-0.324-0.558-0.766-0.578-1.245c-0.016-0.392-0.341-0.696-0.741-0.682c-0.392,0.016-0.698,0.348-0.682,0.741
		c0.036,0.859,0.404,1.652,1.038,2.233c0.599,0.549,1.366,0.848,2.174,0.848c0.047,0,0.092,0,0.139-0.003
		c0.859-0.036,1.651-0.405,2.233-1.038c0.079-0.085,0.152-0.175,0.22-0.267c0.621,0.706,1.548,1.143,2.554,1.092
		c0.858-0.036,1.651-0.405,2.232-1.038c0.581-0.632,0.881-1.454,0.845-2.312C72.761,83.99,72.413,83.666,72.036,83.701z"/>
	<path class="st6" d="M92.341,52.576c-2.201,0-4.342,0.961-6.374,2.86c1.436,1.274,4.893,4.601,6.294,8.238
		c1.23-2.555,3.314-7.395,3.077-10.441C94.844,52.996,93.765,52.576,92.341,52.576z"/>
	<path class="st6" d="M40.869,63.674c1.401-3.637,4.859-6.965,6.295-8.239c-2.032-1.899-4.173-2.86-6.374-2.86
		c-1.423,0-2.502,0.42-2.997,0.657C37.555,56.28,39.639,61.12,40.869,63.674z"/>
</g>
</svg>
