<?xml version="1.0" encoding="utf-8"?>
<!-- Generator: Adobe Illustrator 23.0.2, SVG Export Plug-In . SVG Version: 6.00 Build 0)  -->
<svg version="1.1" id="Layer_1" xmlns="http://www.w3.org/2000/svg" xmlns:xlink="http://www.w3.org/1999/xlink" x="0px" y="0px"
	 viewBox="37.5 45 57 57" style="enable-background:new 0 0 141.677 142.308;" xml:space="preserve">
<style type="text/css">
	.st0{fill:#3E1300;}
	.st1{fill:#C49B72;}
	.st2{fill:#FFFFFF;}
	.st3{fill:#4C3F3A;}
	.st4{fill:#FCCCBB;}
	.st5{fill:#EED7B3;}
	.st6{fill:#FFC20E;}
	.st7{fill:#FFCB05;}
	.st8{fill:#FDD1B0;}
	.st9{fill:none;}
	.st10{fill:#A37036;}
	.st11{fill:#F5949F;}
	.st12{fill:#F8971D;}
	.st13{fill:#F99D1C;}
	.st14{fill:#F9CBDF;}
	.st15{fill:#F69CA3;}
	.st16{fill:#F69D98;}
	.st17{fill:#FEE6D5;}
	.st18{fill:#FBC0A8;}
	.st19{fill:#9AC1E7;}
	.st20{fill:#AD8D52;}
	.st21{fill:#FDCFAA;}
	.st22{fill:#F59293;}
	.st23{fill:#F5929E;}
	.st24{fill:#AD8855;}
	.st25{fill:#6692CC;}
	.st26{fill:#A5DFF9;}
	.st27{fill:#639BB3;}
	.st28{fill:#A38874;}
	.st29{fill:#FFF689;}
	.st30{fill:#ED1C24;}
	.st31{fill:#F8B667;}
	.st32{fill:#B37630;}
	.st33{fill:#F596A0;}
	.st34{fill:#70430B;}
	.st35{fill:#F38598;}
	.st36{fill:#F7A1A0;}
	.st37{fill:#FCC08D;}
	.st38{fill:#A8A8A8;}
	.st39{fill:#82C341;}
	.st40{fill:#FEC872;}
	.st41{fill:#705733;}
</style>
<g>
	<path class="st0" d="M105.603,67.761c-0.598-7.309-12.855-15.192-16.807-16.473c-0.727-0.236-1.51-0.355-2.326-0.355
		c-3.426,0-7.04,2.118-9.712,4.143c-4.568-2.898-9.851-4.33-15.325-4.124c-4.454,0.168-8.791,1.442-12.607,3.697
		c-4.431-3.221-8.363-4.37-11.463-3.361c-3.954,1.281-16.21,9.164-16.808,16.473c-0.117,1.429,0.155,4.032,3.107,5.994
		c0.462,1.938,1.833,5.807,5.487,6.64c1.344,1.064,4.651,3.485,7.883,4.318c3.706,9.327,14.421,10.549,23.429,10.549
		c1.212,0,2.48-0.025,3.878-0.078c0.63-0.024,1.247-0.054,1.856-0.088c3.669,2.999,7.626,4.519,11.771,4.519
		c1.517,0,3.034-0.209,4.509-0.621c4.049-1.133,8.387-4.229,8.391-7.032c0.004-2.864-2.563-4.449-3.863-5.067
		c-0.05-0.071-0.102-0.14-0.156-0.209c0.335-0.553,0.629-1.124,0.883-1.721c3.645-0.374,7.696-3.314,9.279-4.57
		c3.654-0.833,5.025-4.702,5.487-6.64C105.447,71.793,105.72,69.19,105.603,67.761z M85.459,82.479
		c-0.422,1.418-1.047,2.631-1.858,3.671c-0.695-0.237-1.4-0.308-2.001-0.287c-0.341,0.012-0.65,0.051-0.901,0.107
		c-0.08,0.017-0.155,0.048-0.224,0.09c-1.091,0.66-2.181,0.967-3.255,0.925c-0.386-0.015-0.77-0.073-1.151-0.179
		c-3.333-0.928-5.502-4.989-5.523-5.03c-0.191-0.364-0.643-0.507-1.006-0.313c-0.365,0.191-0.505,0.641-0.315,1.005
		c0.099,0.19,2.48,4.667,6.437,5.772c1.814,0.508,3.652,0.228,5.466-0.834c0.517-0.084,2.707-0.312,3.678,1.607
		c0.088,0.173,0.241,0.306,0.425,0.369c0.026,0.01,2.655,0.956,2.652,2.574c-0.035,0.658-2.419,3.217-6.564,4.259
		c-4.217,1.063-12.449,0.943-20.194-11.781c-0.214-0.351-0.672-0.463-1.024-0.25c-0.352,0.214-0.464,0.673-0.25,1.025
		c1.761,2.892,3.553,5.169,5.33,6.954c-0.316,0.015-0.634,0.028-0.956,0.04c-1.352,0.051-2.583,0.076-3.764,0.076
		c-12.513,0-19-3.006-21.033-9.747c-0.087-0.291-0.345-0.5-0.648-0.527c-3.453-0.307-8.146-4.244-8.193-4.284
		c-0.114-0.096-0.254-0.156-0.402-0.172c-3.105-0.332-3.774-5.253-3.78-5.303c-0.032-0.243-0.18-0.456-0.398-0.568
		c-1.796-0.927-2.608-2.128-2.481-3.673c0.425-5.202,10.812-12.602,14.756-13.88c0.43-0.139,0.902-0.21,1.405-0.21
		c3.043,0,6.665,2.53,8.554,4.038c0.255,0.204,0.613,0.218,0.883,0.035c3.675-2.486,7.97-3.889,12.421-4.056
		c5.407-0.208,10.549,1.373,14.878,4.522c0.276,0.201,0.654,0.188,0.916-0.032c2.012-1.683,5.875-4.507,9.129-4.507
		c0.503,0,0.977,0.07,1.406,0.21c3.944,1.278,14.33,8.678,14.756,13.88c0.127,1.545-0.685,2.746-2.481,3.673
		c-0.217,0.112-0.366,0.325-0.398,0.568c-0.006,0.05-0.676,4.972-3.78,5.303c-0.148,0.016-0.288,0.076-0.402,0.172
		c-0.051,0.043-5.127,4.302-8.588,4.301c-0.235,0-0.457-0.02-0.662-0.062C85.94,81.881,85.568,82.109,85.459,82.479z"/>
	<path class="st26" d="M95.57,77.721c0.114-0.096,0.254-0.156,0.402-0.172c3.105-0.332,3.774-5.253,3.78-5.303
		c0.032-0.243,0.18-0.456,0.398-0.568c1.795-0.927,2.608-2.128,2.481-3.673c-0.425-5.202-10.812-12.602-14.756-13.88
		c-0.43-0.139-0.903-0.21-1.406-0.21c-3.254,0-7.116,2.824-9.129,4.507c-0.262,0.22-0.641,0.233-0.916,0.032
		c-4.329-3.149-9.471-4.731-14.878-4.522c-4.452,0.167-8.747,1.571-12.421,4.056c-0.271,0.183-0.629,0.169-0.883-0.035
		c-1.889-1.508-5.511-4.038-8.554-4.038c-0.503,0-0.976,0.07-1.405,0.21c-3.944,1.278-14.33,8.678-14.756,13.88
		c-0.127,1.545,0.685,2.746,2.481,3.673c0.217,0.112,0.366,0.325,0.398,0.568c0.006,0.05,0.676,4.972,3.78,5.303
		c0.148,0.016,0.288,0.076,0.402,0.172c0.047,0.04,4.74,3.977,8.193,4.284c0.303,0.027,0.56,0.236,0.648,0.527
		c2.033,6.741,8.521,9.747,21.033,9.747c1.181,0,2.412-0.025,3.764-0.076c0.322-0.012,0.64-0.026,0.956-0.04
		c-1.777-1.785-3.569-4.062-5.33-6.954c-0.214-0.352-0.102-0.811,0.25-1.025c0.352-0.213,0.81-0.101,1.024,0.25
		c7.746,12.723,15.977,12.844,20.194,11.781c4.144-1.043,6.528-3.601,6.564-4.259c0.002-1.618-2.626-2.564-2.652-2.574
		c-0.184-0.063-0.337-0.196-0.425-0.369c-0.971-1.919-3.161-1.691-3.678-1.607c-1.813,1.063-3.651,1.343-5.466,0.834
		c-3.957-1.106-6.338-5.582-6.437-5.772c-0.191-0.365-0.05-0.814,0.315-1.005c0.364-0.194,0.815-0.051,1.006,0.313
		c0.021,0.041,2.19,4.102,5.523,5.03c0.381,0.106,0.765,0.164,1.151,0.179c-1.03-0.588-1.704-1.717-1.651-2.987
		c0.077-1.809,1.599-3.212,3.4-3.137c1.8,0.077,3.198,1.605,3.121,3.415c-0.025,0.584-0.202,1.124-0.489,1.587
		c0.601-0.021,1.306,0.051,2.001,0.287c0.81-1.04,1.435-2.254,1.858-3.671c0.109-0.37,0.481-0.598,0.861-0.518
		c0.205,0.041,0.427,0.062,0.662,0.062C90.443,82.023,95.519,77.764,95.57,77.721z M38.006,77.364
		c-2.072-0.871-3.938-2.283-3.938-2.283c-2.757-0.264-3.273-3.924-3.273-3.924c-7.063-3.262,5.34-11.38,9.129-12.48
		c1.749-0.507,3.863,0.255,5.638,1.219C40.907,64.315,38.022,70.529,38.006,77.364z M46.918,88.673
		c-1.801-0.076-3.199-1.605-3.122-3.413c0.077-1.809,1.599-3.212,3.4-3.135c1.801,0.077,3.198,1.605,3.121,3.413
		C50.24,87.347,48.718,88.75,46.918,88.673z M51.777,80.967c-1.859,0.071-3.424-1.376-3.496-3.236
		c-0.071-1.858,1.376-3.424,3.235-3.495c1.859-0.073,3.424,1.376,3.495,3.236C55.083,79.33,53.635,80.896,51.777,80.967z
		 M73.385,80.131c-1.86,0.071-3.426-1.378-3.497-3.236c-0.073-1.858,1.378-3.424,3.237-3.495c1.859-0.073,3.422,1.376,3.494,3.236
		C76.691,78.494,75.244,80.058,73.385,80.131z M86.843,76.501c-0.242-6.415-2.976-12.149-7.239-16.33
		c1.864-1.088,4.22-2.049,6.134-1.494c3.79,1.099,16.192,9.218,9.13,12.48c0,0-0.516,3.661-3.273,3.924c0,0-2.37,1.793-4.735,2.585
		C86.863,77.286,86.858,76.9,86.843,76.501z"/>
	<path class="st0" d="M73.125,73.401c-1.859,0.071-3.31,1.637-3.237,3.495c0.07,1.858,1.637,3.307,3.497,3.236
		c1.859-0.073,3.307-1.637,3.234-3.495C76.547,74.777,74.984,73.328,73.125,73.401z M74.599,77.823
		c-0.719,0.028-1.325-0.533-1.353-1.252c-0.027-0.719,0.532-1.324,1.252-1.351c0.718-0.028,1.324,0.533,1.353,1.251
		C75.879,77.19,75.318,77.795,74.599,77.823z"/>
	<path class="st0" d="M51.516,74.237c-1.859,0.071-3.307,1.637-3.235,3.495c0.072,1.86,1.637,3.307,3.496,3.236
		c1.858-0.071,3.306-1.637,3.235-3.495C54.94,75.613,53.375,74.164,51.516,74.237z M54.605,77.293
		c0.028,0.718-0.533,1.324-1.252,1.353c-0.719,0.028-1.324-0.533-1.352-1.251c-0.029-0.721,0.532-1.327,1.251-1.354
		C53.972,76.013,54.577,76.574,54.605,77.293z"/>
	<path class="st4" d="M47.196,82.125c-1.801-0.077-3.323,1.327-3.4,3.135c-0.077,1.809,1.32,3.338,3.122,3.413
		c1.8,0.077,3.322-1.327,3.399-3.135C50.394,83.729,48.997,82.202,47.196,82.125z"/>
	<path class="st4" d="M78.969,80.861c-1.801-0.076-3.323,1.328-3.4,3.137c-0.054,1.269,0.621,2.399,1.651,2.987
		c1.074,0.042,2.165-0.265,3.255-0.925c0.069-0.042,0.145-0.073,0.224-0.09c0.252-0.056,0.56-0.095,0.901-0.107
		c0.287-0.463,0.464-1.003,0.489-1.587C82.167,82.465,80.769,80.938,78.969,80.861z"/>
	<path class="st2" d="M74.498,75.219c-0.72,0.028-1.28,0.632-1.252,1.351c0.028,0.719,0.634,1.28,1.353,1.252
		c0.719-0.028,1.28-0.633,1.252-1.353C75.822,75.752,75.217,75.192,74.498,75.219z"/>
	<path class="st2" d="M52.001,77.395c0.028,0.718,0.632,1.279,1.352,1.251c0.719-0.029,1.28-0.635,1.252-1.353
		c-0.028-0.719-0.633-1.28-1.352-1.252C52.533,76.068,51.973,76.674,52.001,77.395z"/>
	<path class="st27" d="M45.563,59.896c-1.775-0.964-3.889-1.726-5.638-1.219c-3.789,1.099-16.192,9.218-9.129,12.48
		c0,0,0.516,3.661,3.273,3.924c0,0,1.865,1.413,3.938,2.283C38.022,70.529,40.907,64.315,45.563,59.896z"/>
	<path class="st27" d="M94.867,71.157c7.063-3.262-5.34-11.38-9.13-12.48c-1.914-0.555-4.27,0.406-6.134,1.494
		c4.262,4.181,6.997,9.915,7.239,16.33c0.016,0.399,0.02,0.785,0.017,1.165c2.365-0.792,4.735-2.585,4.735-2.585
		C94.351,74.818,94.867,71.157,94.867,71.157z"/>
</g>
</svg>
