<?xml version="1.0" encoding="utf-8"?>
<!-- Generator: Adobe Illustrator 23.0.2, SVG Export Plug-In . SVG Version: 6.00 Build 0)  -->
<svg version="1.1" id="Layer_1" xmlns="http://www.w3.org/2000/svg" xmlns:xlink="http://www.w3.org/1999/xlink" x="0px" y="0px"
	 viewBox="32.04 35 70 70" style="enable-background:new 0 0 141.677 142.308;" xml:space="preserve">
<style type="text/css">
	.st0{fill:#3E1300;}
	.st1{fill:#C49B72;}
	.st2{fill:#FFFFFF;}
	.st3{fill:#4C3F3A;}
	.st4{fill:#FCCCBB;}
	.st5{fill:#EED7B3;}
	.st6{fill:#FFC20E;}
	.st7{fill:#FFCB05;}
	.st8{fill:#FDD1B0;}
	.st9{fill:none;}
	.st10{fill:#A37036;}
	.st11{fill:#F5949F;}
	.st12{fill:#F8971D;}
	.st13{fill:#F99D1C;}
	.st14{fill:#F9CBDF;}
	.st15{fill:#F69CA3;}
	.st16{fill:#F69D98;}
	.st17{fill:#FEE6D5;}
	.st18{fill:#FBC0A8;}
	.st19{fill:#9AC1E7;}
	.st20{fill:#AD8D52;}
	.st21{fill:#FDCFAA;}
	.st22{fill:#F59293;}
	.st23{fill:#F5929E;}
	.st24{fill:#AD8855;}
	.st25{fill:#6692CC;}
	.st26{fill:#A5DFF9;}
	.st27{fill:#639BB3;}
	.st28{fill:#A38874;}
	.st29{fill:#FFF689;}
	.st30{fill:#ED1C24;}
	.st31{fill:#F8B667;}
	.st32{fill:#B37630;}
	.st33{fill:#F596A0;}
	.st34{fill:#70430B;}
	.st35{fill:#F38598;}
	.st36{fill:#F7A1A0;}
	.st37{fill:#FCC08D;}
	.st38{fill:#A8A8A8;}
	.st39{fill:#82C341;}
	.st40{fill:#FEC872;}
	.st41{fill:#705733;}
</style>
<g>
	<path class="st0" d="M101.421,57.559c-0.114-1.161-0.734-2.103-1.746-2.651c-0.624-0.338-1.384-0.503-2.323-0.503
		c-2.231,0-5.59,0.973-9.994,2.892c-2.135-2.877-4.735-5.165-7.752-6.822l0.065-0.375c2.127-1.054,3.504-3.225,3.504-5.649
		c0-3.477-2.83-6.307-6.308-6.307c-3.478,0-6.308,2.83-6.308,6.307c0,1.196,0.342,2.351,0.961,3.34
		c-1.031-0.145-2.091-0.228-3.175-0.248l-0.231-0.006c-0.496-0.018-1,0.002-1.506,0.026c-0.456,0.023-0.908,0.056-1.354,0.101
		c-0.872,0.086-1.739,0.215-2.593,0.386c0.727-1.044,1.132-2.296,1.132-3.599c0-3.477-2.83-6.307-6.308-6.307
		c-3.478,0-6.308,2.83-6.308,6.307c0,2.424,1.377,4.594,3.504,5.649l0.164,0.942c-2.801,1.668-5.221,3.873-7.216,6.572
		c-4.753-2.13-8.353-3.208-10.711-3.208c-0.939,0-1.699,0.165-2.323,0.504c-1.012,0.548-1.632,1.49-1.745,2.651
		c-0.287,2.915,0.418,5.252,2.095,6.946c1.705,1.722,4.332,2.717,8,3.023c-0.896,3.35-1.294,6.939-1.185,10.693
		c0.266,9.156,3.799,15.303,10.502,18.282c1.454,4.016,7.897,6.754,16.154,6.754c9.206,0,16.192-3.506,16.459-8.2
		c5.949-3.472,8.709-9.79,8.433-19.279c-0.084-2.901-0.476-5.693-1.167-8.326c3.24-0.38,5.6-1.351,7.183-2.949
		C101.003,62.811,101.708,60.474,101.421,57.559z M84.826,64.569c-0.392-0.042-0.746,0.258-0.782,0.655
		c-0.035,0.396,0.258,0.747,0.655,0.782c1.454,0.128,2.798,0.192,4.038,0.192c0.002,0,0.004,0,0.007,0
		c0.995,2.927,1.582,6.172,1.683,9.666c0.269,9.256-2.482,14.288-7.535,16.995c-1.744-2.983-7.478-5.115-14.475-5.115
		c-7.764,0-13.974,2.625-14.901,6.125c-5.877-2.547-8.636-7.62-8.872-15.732c-0.004-0.153-0.002-0.304-0.005-0.456
		c1.42,0.25,2.858,0.383,4.287,0.383c12.65,0,22.942-9.52,22.942-21.221c0-2.126-0.341-4.215-1.008-6.227
		c0.947,0.125,1.873,0.302,2.77,0.544l-0.367,2.11c-0.203,1.175,0.587,2.297,1.765,2.503c0.124,0.02,0.247,0.031,0.368,0.031
		c1.054,0,1.95-0.754,2.13-1.794l0.218-1.251c3.08,1.6,5.715,3.973,7.776,6.958c-1.238,0.587-2.215,1.085-2.715,1.345
		c-0.353,0.184-0.491,0.619-0.307,0.973c0.184,0.353,0.619,0.49,0.972,0.308c4.711-2.449,12.901-5.945,14.829-4.899
		c0.138,0.075,0.227,0.167,0.25,0.396c0.204,2.078-0.201,3.551-1.274,4.635C95.348,64.422,91.16,65.129,84.826,64.569z M82,94.779
		c0,2.701-5.458,5.594-13.582,5.594s-13.582-2.893-13.582-5.594c0-2.701,5.458-5.593,13.582-5.593S82,92.078,82,94.779z
		 M57.487,41.028c1.888,0,3.423,1.535,3.423,3.423c0,1.888-1.535,3.424-3.423,3.424c-1.888,0-3.423-1.536-3.423-3.424
		C54.064,42.563,55.599,41.028,57.487,41.028z M57.487,49.317c0.493,0,0.968-0.075,1.416-0.212l0.767,4.411
		c0.068,0.392-0.195,0.767-0.583,0.835c-0.406,0.073-0.771-0.199-0.839-0.587l-0.774-4.448
		C57.479,49.316,57.483,49.317,57.487,49.317z M50.802,62.343c0.012,0.006,0.024,0.009,0.036,0.014
		c0.346,0.156,0.759,0.019,0.936-0.322c0.184-0.353,0.046-0.789-0.307-0.973c-0.394-0.205-1.083-0.557-1.962-0.984
		c1.927-2.798,4.365-5.082,7.209-6.726l0.114,0.657c0.181,1.039,1.076,1.794,2.13,1.794c0.121,0,0.244-0.011,0.372-0.032
		c1.174-0.205,1.964-1.327,1.761-2.503l-0.302-1.736c1.872-0.612,3.865-0.987,5.961-1.09c0.842-0.042,1.671-0.033,2.534,0.021
		c0.758,2.049,1.142,4.192,1.142,6.377c0,10.906-9.644,19.779-21.499,19.779c-1.43,0-2.87-0.135-4.287-0.4
		c0.077-3.624,0.694-6.998,1.77-10.035c0.991-0.023,2.044-0.083,3.163-0.181c0.397-0.035,0.69-0.385,0.655-0.782
		c-0.024-0.268-0.192-0.489-0.421-0.593c-0.11-0.05-0.232-0.075-0.361-0.062c-6.334,0.56-10.522-0.146-12.45-2.094
		c-1.073-1.084-1.478-2.556-1.274-4.635c0.023-0.23,0.112-0.322,0.25-0.396C37.902,56.399,46.091,59.894,50.802,62.343z
		 M76.869,41.028c1.888,0,3.423,1.535,3.423,3.423c0,1.888-1.535,3.424-3.423,3.424c-1.888,0-3.423-1.536-3.423-3.424
		C73.445,42.563,74.981,41.028,76.869,41.028z M76.869,49.317c0.004,0,0.008-0.001,0.012-0.001l-0.774,4.448
		c-0.067,0.388-0.466,0.653-0.834,0.587c-0.392-0.068-0.655-0.443-0.587-0.835l0.767-4.411
		C75.901,49.242,76.376,49.317,76.869,49.317z"/>
	<path class="st0" d="M78.034,77.582c-1.798,0.069-3.201,1.583-3.131,3.38c0.068,1.797,1.584,3.198,3.382,3.13
		c1.798-0.07,3.198-1.583,3.128-3.38C81.344,78.912,79.832,77.511,78.034,77.582z M79.46,81.859
		c-0.696,0.027-1.282-0.516-1.309-1.211c-0.026-0.696,0.515-1.28,1.211-1.307c0.695-0.026,1.281,0.516,1.308,1.21
		C80.698,81.247,80.156,81.833,79.46,81.859z"/>
	<path class="st2" d="M79.362,79.341c-0.696,0.027-1.237,0.611-1.211,1.307c0.027,0.696,0.613,1.239,1.309,1.211
		c0.696-0.026,1.237-0.612,1.211-1.308C80.643,79.856,80.057,79.314,79.362,79.341z"/>
	<path class="st0" d="M57.361,77.345c-1.798,0.069-3.198,1.583-3.129,3.38c0.07,1.798,1.583,3.198,3.381,3.13
		c1.797-0.069,3.198-1.583,3.129-3.38C60.672,78.676,59.159,77.275,57.361,77.345z M60.348,80.301
		c0.027,0.695-0.515,1.281-1.211,1.309c-0.696,0.026-1.281-0.515-1.308-1.21c-0.027-0.697,0.515-1.283,1.211-1.31
		C59.736,79.064,60.321,79.605,60.348,80.301z"/>
	<path class="st2" d="M57.83,80.4c0.027,0.695,0.612,1.237,1.308,1.21c0.695-0.028,1.237-0.614,1.211-1.309
		c-0.027-0.696-0.613-1.238-1.308-1.211C58.345,79.117,57.802,79.703,57.83,80.4z"/>
	<path class="st6" d="M98.55,57.841c-0.023-0.23-0.112-0.322-0.25-0.396c-1.928-1.046-10.119,2.45-14.829,4.899
		c-0.353,0.182-0.789,0.045-0.972-0.308c-0.184-0.353-0.046-0.789,0.307-0.973c0.5-0.26,1.476-0.758,2.715-1.345
		c-2.061-2.985-4.696-5.359-7.776-6.958l-0.218,1.251c-0.181,1.039-1.077,1.794-2.13,1.794c-0.121,0-0.244-0.011-0.368-0.031
		c-1.179-0.206-1.969-1.328-1.765-2.503l0.367-2.11c-0.897-0.242-1.823-0.419-2.77-0.544c0.667,2.011,1.008,4.1,1.008,6.227
		c0,11.701-10.292,21.221-22.942,21.221c-1.43,0-2.867-0.134-4.287-0.383c0.003,0.153,0,0.303,0.005,0.456
		c0.236,8.111,2.995,13.185,8.872,15.732c0.927-3.5,7.137-6.125,14.901-6.125c6.997,0,12.731,2.132,14.475,5.115
		c5.052-2.707,7.804-7.739,7.535-16.995c-0.101-3.494-0.688-6.739-1.683-9.666c-0.002,0-0.004,0-0.007,0
		c-1.239,0-2.584-0.064-4.038-0.192c-0.397-0.035-0.69-0.385-0.655-0.782c0.035-0.396,0.39-0.696,0.782-0.655
		c6.333,0.56,10.522-0.146,12.45-2.094C98.35,61.391,98.755,59.919,98.55,57.841z M57.613,83.855
		c-1.798,0.069-3.311-1.331-3.381-3.13c-0.069-1.797,1.331-3.312,3.129-3.38c1.798-0.07,3.311,1.331,3.381,3.13
		C60.811,82.272,59.41,83.786,57.613,83.855z M78.286,84.092c-1.799,0.069-3.314-1.332-3.382-3.13
		c-0.07-1.797,1.333-3.312,3.131-3.38c1.798-0.07,3.31,1.331,3.38,3.13C81.483,82.509,80.083,84.021,78.286,84.092z"/>
	<path class="st13" d="M68.418,89.186c-8.125,0-13.582,2.892-13.582,5.593c0,2.701,5.458,5.594,13.582,5.594S82,97.48,82,94.779
		C82,92.078,76.543,89.186,68.418,89.186z M60.999,98.568c-1.542,0-2.796-1.253-2.796-2.793c0-1.54,1.254-2.792,2.796-2.792
		c1.541,0,2.795,1.253,2.795,2.792C63.794,97.315,62.54,98.568,60.999,98.568z M79,95.774c0,1.54-1.254,2.793-2.795,2.793
		c-1.542,0-2.796-1.253-2.796-2.793c0-1.54,1.254-2.792,2.796-2.792C77.747,92.982,79,94.234,79,95.774z"/>
	<path class="st3" d="M50.228,65.224c0.035,0.396-0.258,0.747-0.655,0.782c-1.119,0.099-2.171,0.158-3.163,0.181
		c-1.077,3.037-1.693,6.411-1.77,10.035c1.418,0.265,2.858,0.4,4.287,0.4c11.855,0,21.499-8.873,21.499-19.779
		c0-2.184-0.384-4.328-1.142-6.377c-0.863-0.054-1.693-0.063-2.534-0.021c-2.096,0.103-4.089,0.478-5.961,1.09l0.302,1.736
		c0.203,1.175-0.587,2.298-1.761,2.503c-0.128,0.021-0.251,0.032-0.372,0.032c-1.054,0-1.95-0.754-2.13-1.794l-0.114-0.657
		c-2.843,1.644-5.282,3.928-7.209,6.726c0.879,0.427,1.568,0.779,1.962,0.984c0.353,0.184,0.491,0.619,0.307,0.973
		c-0.177,0.341-0.59,0.478-0.936,0.322l-1.03,2.274C50.036,64.735,50.205,64.956,50.228,65.224z"/>
	<path class="st6" d="M35.972,57.444c-0.137,0.075-0.227,0.167-0.25,0.396c-0.204,2.078,0.201,3.551,1.274,4.635
		c1.928,1.948,6.116,2.654,12.45,2.094c0.129-0.013,0.251,0.012,0.361,0.062l1.03-2.274c-0.012-0.005-0.024-0.008-0.036-0.014
		C46.091,59.894,37.902,56.399,35.972,57.444z"/>
	<path class="st3" d="M62.352,95.774c0-0.745-0.607-1.35-1.353-1.35c-0.746,0-1.353,0.606-1.353,1.35
		c0,0.746,0.607,1.351,1.353,1.351C61.745,97.126,62.352,96.52,62.352,95.774z"/>
	<path class="st0" d="M63.794,95.774c0-1.54-1.254-2.792-2.795-2.792c-1.542,0-2.796,1.253-2.796,2.792
		c0,1.54,1.254,2.793,2.796,2.793C62.54,98.568,63.794,97.315,63.794,95.774z M59.645,95.774c0-0.745,0.607-1.35,1.353-1.35
		c0.746,0,1.353,0.606,1.353,1.35c0,0.746-0.607,1.351-1.353,1.351C60.252,97.126,59.645,96.52,59.645,95.774z"/>
	<path class="st3" d="M76.205,94.424c-0.746,0-1.354,0.606-1.354,1.35c0,0.746,0.607,1.351,1.354,1.351
		c0.746,0,1.353-0.606,1.353-1.351C77.558,95.03,76.951,94.424,76.205,94.424z"/>
	<path class="st0" d="M76.205,92.982c-1.542,0-2.796,1.253-2.796,2.792c0,1.54,1.254,2.793,2.796,2.793
		c1.541,0,2.795-1.253,2.795-2.793C79,94.234,77.747,92.982,76.205,92.982z M77.558,95.774c0,0.746-0.607,1.351-1.353,1.351
		c-0.746,0-1.354-0.606-1.354-1.351c0-0.745,0.607-1.35,1.354-1.35C76.951,94.424,77.558,95.03,77.558,95.774z"/>
	<path class="st6" d="M58.249,53.764c0.068,0.388,0.433,0.659,0.839,0.587c0.387-0.068,0.651-0.442,0.583-0.835l-0.767-4.411
		c-0.448,0.137-0.924,0.212-1.416,0.212c-0.004,0-0.008-0.001-0.012-0.001L58.249,53.764z"/>
	<path class="st6" d="M74.686,53.516c-0.068,0.392,0.195,0.767,0.587,0.835c0.369,0.065,0.767-0.199,0.834-0.587l0.774-4.448
		c-0.004,0-0.008,0.001-0.012,0.001c-0.492,0-0.968-0.075-1.416-0.212L74.686,53.516z"/>
	<path class="st3" d="M57.487,47.874c1.888,0,3.423-1.536,3.423-3.424c0-1.887-1.535-3.423-3.423-3.423
		c-1.888,0-3.423,1.535-3.423,3.423C54.064,46.339,55.599,47.874,57.487,47.874z"/>
	<path class="st3" d="M76.869,47.874c1.888,0,3.423-1.536,3.423-3.424c0-1.887-1.535-3.423-3.423-3.423
		c-1.888,0-3.423,1.535-3.423,3.423C73.445,46.339,74.981,47.874,76.869,47.874z"/>
</g>
</svg>
