<?xml version="1.0" encoding="utf-8"?>
<!-- Generator: Adobe Illustrator 23.0.2, SVG Export Plug-In . SVG Version: 6.00 Build 0)  -->
<svg version="1.1" id="Layer_1" xmlns="http://www.w3.org/2000/svg" xmlns:xlink="http://www.w3.org/1999/xlink" x="0px" y="-50px"
	 viewBox="27.3 60 40 40" style="enable-background:new 0 0 141.677 142.308;" xml:space="preserve">
<style type="text/css">
	.st0{fill:#3E1300;}
	.st1{fill:#C49B72;}
	.st2{fill:#FFFFFF;}
	.st3{fill:#4C3F3A;}
	.st4{fill:#FCCCBB;}
	.st5{fill:#EED7B3;}
	.st6{fill:#FFC20E;}
	.st7{fill:#FFCB05;}
	.st8{fill:#FDD1B0;}
	.st9{fill:none;}
	.st10{fill:#A37036;}
	.st11{fill:#F5949F;}
	.st12{fill:#F8971D;}
	.st13{fill:#F99D1C;}
	.st14{fill:#F9CBDF;}
	.st15{fill:#F69CA3;}
	.st16{fill:#F69D98;}
	.st17{fill:#FEE6D5;}
	.st18{fill:#FBC0A8;}
	.st19{fill:#9AC1E7;}
	.st20{fill:#AD8D52;}
	.st21{fill:#FDCFAA;}
	.st22{fill:#F59293;}
	.st23{fill:#F5929E;}
	.st24{fill:#AD8855;}
	.st25{fill:#6692CC;}
	.st26{fill:#A5DFF9;}
	.st27{fill:#639BB3;}
	.st28{fill:#A38874;}
	.st29{fill:#FFF689;}
	.st30{fill:#ED1C24;}
	.st31{fill:#F8B667;}
	.st32{fill:#B37630;}
	.st33{fill:#F596A0;}
	.st34{fill:#70430B;}
	.st35{fill:#F38598;}
	.st36{fill:#F7A1A0;}
	.st37{fill:#FCC08D;}
	.st38{fill:#A8A8A8;}
	.st39{fill:#82C341;}
	.st40{fill:#FEC872;}
	.st41{fill:#705733;}
</style>
<g>
	<path class="st0" d="M57.823,74.975c0.082-0.682-0.026-1.276-0.083-1.595l-0.018-0.1c-0.109-0.657-0.476-1.23-1.035-1.613
		c-0.466-0.319-1.06-0.487-1.852-0.521c-0.252-0.569-0.57-0.984-0.708-1.15c-0.257-0.309-0.593-0.544-0.968-0.677
		c-2.008-0.716-4.405-0.25-6.948,1.351c-0.009,0.001-0.018,0.001-0.026,0.001c-4.304,0.162-8.288,1.979-11.22,5.117
		c-2.935,3.141-4.462,7.232-4.301,11.515c0.398,10.505,11.394,10.505,15.008,10.505c0.735,0,1.484-0.016,2.238-0.045
		c3.541-0.134,7.215-0.47,10.087-2.014c3.435-1.846,5.088-5.097,4.916-9.663C62.752,81.846,60.911,77.85,57.823,74.975z
		 M44.728,74.719c0.286,0.297,0.759,0.304,1.053,0.02c1-0.961,4.006-3.247,6.169-2.675c0.165,0.252,0.297,0.576,0.25,0.698
		c-0.012,0.032-0.102,0.115-0.349,0.184c-0.124,0.023-0.25,0.049-0.379,0.075c-0.395,0.081-0.654,0.46-0.585,0.856
		c0.068,0.398,0.438,0.671,0.837,0.613c0.154-0.021,0.299-0.049,0.436-0.084c1.092-0.201,2.184-0.316,2.679-0.283
		c0.043,0.278,0.066,0.599-0.072,0.766c-0.15,0.182-0.55,0.291-1.099,0.301c-0.412,0.007-0.741,0.347-0.733,0.758
		c0.007,0.408,0.339,0.733,0.746,0.733c0.004,0,0.009,0,0.013,0c0.502-0.009,0.936-0.082,1.302-0.216
		c2.893,2.285,4.787,5.766,4.937,9.732c0.255,6.786-4.256,8.286-12.135,8.584c-0.716,0.027-1.427,0.042-2.126,0.042
		c-8.228,0-11.824-2.283-12.027-7.635c-0.131-3.483,1.112-6.809,3.501-9.366c2.009-2.151,4.627-3.537,7.496-4.004
		C44.468,74.101,44.488,74.469,44.728,74.719z"/>
	<path class="st29" d="M37.144,77.823c-2.389,2.557-3.632,5.883-3.501,9.366c0.203,5.352,3.8,7.635,12.027,7.635
		c0.699,0,1.41-0.016,2.126-0.042c7.879-0.298,12.391-1.798,12.135-8.584c-0.15-3.966-2.044-7.447-4.937-9.732
		c-0.366,0.134-0.8,0.207-1.302,0.216c-0.004,0-0.008,0-0.013,0c-0.406,0-0.738-0.326-0.746-0.733
		c-0.007-0.411,0.321-0.75,0.733-0.758c0.55-0.01,0.95-0.119,1.099-0.301c0.137-0.167,0.115-0.488,0.072-0.766
		c-0.496-0.033-1.587,0.082-2.679,0.283c-0.137,0.034-0.282,0.063-0.436,0.084c-0.399,0.059-0.77-0.215-0.837-0.613
		c-0.068-0.397,0.191-0.775,0.585-0.856c0.129-0.026,0.255-0.051,0.379-0.075c0.247-0.07,0.337-0.153,0.349-0.184
		c0.048-0.122-0.085-0.446-0.25-0.698c-2.164-0.572-5.169,1.714-6.169,2.675c-0.295,0.284-0.767,0.277-1.053-0.02
		c-0.24-0.249-0.26-0.617-0.088-0.899C41.771,74.286,39.153,75.673,37.144,77.823z M37.962,93.094
		c-1.025-0.042-1.819-0.913-1.775-1.941c0.044-1.03,0.909-1.827,1.934-1.784c1.025,0.044,1.82,0.913,1.775,1.941
		C39.852,92.339,38.987,93.137,37.962,93.094z M40.727,88.709c-1.059,0.042-1.948-0.782-1.989-1.839
		c-0.041-1.057,0.783-1.948,1.841-1.989c1.057-0.041,1.947,0.783,1.989,1.841C42.607,87.778,41.784,88.67,40.727,88.709z
		 M56.196,88.649c1.024,0.044,1.82,0.913,1.775,1.943c-0.044,1.028-0.909,1.826-1.934,1.784c-1.024-0.044-1.819-0.913-1.775-1.943
		C54.306,89.405,55.171,88.606,56.196,88.649z M54.859,86.245c0.041,1.057-0.782,1.948-1.839,1.989
		c-1.059,0.041-1.95-0.783-1.991-1.841c-0.041-1.057,0.785-1.948,1.842-1.989C53.929,84.364,54.819,85.188,54.859,86.245z
		 M47.045,86.514c2.336-0.067,4.233,0.956,4.296,2.338c0.018,0.377-0.105,0.71-0.365,0.992c-0.579,0.626-1.825,0.961-3.809,1.025
		c-0.189,0.006-0.376,0.009-0.558,0.009c-0.881,0-3.56,0-3.64-1.75c-0.022-0.456,0.159-0.904,0.523-1.298
		C44.198,87.065,45.56,86.561,47.045,86.514z"/>
	<path class="st7" d="M43.68,89.094c0.041,0.885,1.616,1.071,2.929,1.071c0.174,0,0.353-0.003,0.535-0.009
		c2.192-0.069,3.009-0.471,3.309-0.796c0.129-0.14,0.185-0.291,0.177-0.475c-0.042-0.917-1.544-1.662-3.348-1.662l-0.216,0.004
		c-1.302,0.041-2.471,0.457-3.052,1.086C43.781,88.566,43.668,88.829,43.68,89.094z"/>
	<path class="st0" d="M42.97,89.127c0.08,1.75,2.759,1.75,3.64,1.75c0.182,0,0.368-0.003,0.558-0.009
		c1.985-0.064,3.23-0.399,3.809-1.025c0.26-0.282,0.383-0.615,0.365-0.992c-0.063-1.382-1.961-2.405-4.296-2.338
		c-1.485,0.047-2.847,0.551-3.553,1.315C43.128,88.223,42.948,88.671,42.97,89.127z M47.283,87.222c1.804,0,3.306,0.746,3.348,1.662
		c0.009,0.184-0.048,0.335-0.177,0.475c-0.301,0.325-1.118,0.727-3.309,0.796c-0.182,0.006-0.361,0.009-0.535,0.009
		c-1.314,0-2.889-0.185-2.929-1.071c-0.012-0.265,0.1-0.529,0.335-0.782c0.581-0.629,1.75-1.046,3.052-1.086L47.283,87.222z"/>
	<path class="st0" d="M51.03,86.394c0.041,1.057,0.932,1.881,1.991,1.841c1.057-0.041,1.88-0.932,1.839-1.989
		c-0.041-1.057-0.931-1.881-1.988-1.841C51.815,84.445,50.989,85.336,51.03,86.394z M53.654,85.44
		c0.408-0.016,0.753,0.303,0.769,0.712c0.016,0.409-0.303,0.754-0.712,0.769c-0.409,0.016-0.754-0.303-0.77-0.712
		C52.926,85.799,53.243,85.456,53.654,85.44z"/>
	<path class="st0" d="M40.578,84.881c-1.057,0.041-1.881,0.932-1.841,1.989c0.041,1.057,0.931,1.881,1.989,1.839
		c1.057-0.039,1.88-0.931,1.841-1.988C42.525,85.664,41.636,84.84,40.578,84.881z M42.336,86.619
		c0.015,0.409-0.304,0.753-0.712,0.77c-0.409,0.015-0.754-0.304-0.77-0.712c-0.016-0.411,0.303-0.754,0.712-0.77
		C41.975,85.891,42.32,86.21,42.336,86.619z"/>
	<path class="st4" d="M38.12,89.369c-1.025-0.044-1.89,0.754-1.934,1.784c-0.044,1.028,0.75,1.899,1.775,1.941
		c1.025,0.044,1.89-0.754,1.934-1.784C39.941,90.282,39.146,89.412,38.12,89.369z"/>
	<path class="st4" d="M56.038,92.376c1.025,0.042,1.89-0.756,1.934-1.784c0.045-1.03-0.751-1.899-1.775-1.943
		c-1.025-0.044-1.89,0.756-1.934,1.784C54.219,91.463,55.014,92.332,56.038,92.376z"/>
	<path class="st2" d="M53.711,86.921c0.409-0.015,0.728-0.36,0.712-0.769c-0.016-0.409-0.361-0.728-0.769-0.712
		c-0.411,0.016-0.728,0.36-0.714,0.769C52.956,86.618,53.301,86.937,53.711,86.921z"/>
	<path class="st2" d="M40.854,86.678c0.016,0.408,0.361,0.727,0.77,0.712c0.408-0.017,0.727-0.361,0.712-0.77
		c-0.016-0.409-0.361-0.728-0.77-0.712C41.157,85.923,40.838,86.267,40.854,86.678z"/>
</g>
</svg>
