<svg xmlns="http://www.w3.org/2000/svg" viewBox="0 0 75.98 120.45">
	<defs>
		<style>.cls-1{fill:#595f74;}</style>
	</defs>
	<g id="Layer_2" data-name="Layer 2">
		<g id="Layer_1-2" data-name="Layer 1">
			<path class="cls-1" d="M35.05,103.6c-7.83,0-15.66.2-23.47-.06-7.08-.23-8.56-3-4.29-8.56,6.71-8.77,7.46-17.91,4.39-28.24C8.8,57.05,6,47.16,8.45,36.81c2.15-9.13,6.31-16.92,15.11-21.17C29.37,12.83,34,9.19,35.82,2.72c.34-1.18.93-2.9,2.5-2.7,1.8.22,1.11,2.12,1.4,3.31a18.93,18.93,0,0,1,.58,4c.1,4.57,2.47,7.23,6.89,7.71,5.74.62,9.76,3.47,13,8.2,2.63,3.87,6.51,6.59,10.35,9.29,5.4,3.78,6.94,9.32,4,13.67-3.37,5-9.35,5.91-14.78,1.31s-10.47-2.67-15.81-.58c-1.93.76-1.44,1.92-.44,3.06,9.76,11.22,13.42,25.5,19.47,38.58.42.91.78,1.84,1.12,2.78,3.53,10,1.89,12.33-8.54,12.34H35.05Zm-19.8-6c1,.11,1.64-.34,3.09-2.34a26.16,26.16,0,0,0,4.53-21.33C21.42,66.59,19.76,59.29,18,52,15.14,40.1,16.18,29.73,28.56,23.49c1-.51,2.28-1.16,1.53-2.64-1-1.93-2.46-1-3.84-.42C17,24.58,11.72,34.33,12.89,45.07a116.34,116.34,0,0,0,3.54,16.59c2.91,11.19,6.05,22.45-2.26,32.92C13.06,96,13.82,97,15.25,97.61Zm30.47-76c2.7,4.47,4,5.23,8.64,5.05C52,24,49.93,21.14,45.72,21.62Z"/>
			<path class="cls-1" d="M34.45,120.43c-9.15,0-18.3,0-27.45,0-3.72,0-7-.77-7-5.15S3,110,6.84,110q27.94.11,55.91,0c3.77,0,6.83,1,6.74,5.39-.08,4.11-3,5.07-6.58,5.07Q48.68,120.41,34.45,120.43Z"/>
		</g>
	</g>
</svg>