<svg xmlns="http://www.w3.org/2000/svg" viewBox="0 0 69.33 116.99">
	<defs>
		<style>.cls-1{fill:#d0adac;}</style>
	</defs>
	<g id="Layer_2" data-name="Layer 2">
		<g id="Layer_1-2" data-name="Layer 1">
			<g id="_3ihPTl" data-name="3ihPTl">
				<path class="cls-1" d="M34.19,100.31c-7.15,0-14.31,0-21.46,0-9.19-.06-11.17-3.08-7.54-11.36,6-13.69,11.88-27.46,18.11-41,1.72-3.75,1.66-5.72-2-8.36a21.59,21.59,0,0,1-6.94-26.34C18.2,4.55,28.42-1.15,37.59.2a22.37,22.37,0,0,1,19,19.67c.78,8.43-2.25,15.52-9.34,20.23-3.13,2.07-3.16,3.66-1.75,6.77C51.9,61,58,75.14,64.2,89.31c3.41,7.83,1.57,10.77-7,11C49.51,100.44,41.85,100.3,34.19,100.31Z"/>
				<path class="cls-1" d="M34.33,117c-9.14,0-18.29,0-27.43,0-3.63,0-6.85-.5-6.9-5.13s3.05-5.32,6.74-5.32q27.93,0,55.86,0c3.72,0,6.86,1,6.72,5.42s-3.38,5.08-7.06,5C53,116.92,43.64,117,34.33,117Z"/>
			</g>
		</g>
	</g>
</svg>