<svg xmlns="http://www.w3.org/2000/svg" viewBox="0 0 69.59 119.11">
	<defs>
		<style>.cls-1{fill:#d0adac;}</style>
	</defs>
	<g id="Layer_2" data-name="Layer 2">
		<g id="Layer_1-2" data-name="Layer 1">
			<g id="_3ihPTl" data-name="3ihPTl">
				<path class="cls-1" d="M35.17,102.3c-7.83,0-15.65,0-23.47,0s-9.51-2.63-6.18-9.92c3.93-8.62,7.93-17.21,12.08-25.74,1.44-3,1.68-5-1.68-6.89a9,9,0,0,1-4.36-8c-.27-15.91,4.27-29.82,17.27-40,1.44-1.12,1.89-1.85,1.17-3.61-1.09-2.66-.91-5.25,1.79-7.06A4.8,4.8,0,0,1,37.4.77a5.32,5.32,0,0,1,2.37,6.89c-.75,2.07,0,3.09,1.71,4.48C53.72,22.17,58.16,35.71,58.14,51a10.16,10.16,0,0,1-5.08,9.23c-2.81,1.59-2.49,3.31-1.35,5.7Q57.94,79,64,92.14c3.4,7.41,2.11,9.7-5.85,9.92-7.64.22-15.3,0-22.95,0Zm-2.6-60.76c0,1.83,0,3.66,0,5.49,0,1.41.27,2.79,2,2.87,2,.09,2.48-1.39,2.52-3,.08-3,.11-6,0-9-.08-2.52-.11-4.74,3.48-4.38a2.3,2.3,0,0,0,2.77-2.22A2.2,2.2,0,0,0,40.76,29c-3.46.43-3.77-1.52-3.63-4.19.08-1.66-.07-3.71-2.33-3.69s-2.34,2-2.21,3.72C32.8,27.53,32.47,29.5,29,29a2.3,2.3,0,1,0-.17,4.52c3.87-.51,3.95,1.8,3.77,4.53C32.5,39.21,32.56,40.38,32.57,41.54Z"/>
				<path class="cls-1" d="M34.68,119.09c-9.16,0-18.32,0-27.48,0-3.86,0-7.37-.75-7.19-5.48.15-4.34,3.47-5,7.17-5,17.65,0,35.3-.15,53-.22a27.91,27.91,0,0,1,4,.14c3.1.4,5.53,1.78,5.47,5.3-.06,3.72-2.44,5.25-5.93,5.25C54,119.11,44.34,119.09,34.68,119.09Z"/>
			</g>
		</g>
	</g>
</svg>