<?xml version="1.0" encoding="utf-8"?>
<!-- Generator: Adobe Illustrator 18.0.0, SVG Export Plug-In . SVG Version: 6.00 Build 0)  -->
<!DOCTYPE svg PUBLIC "-//W3C//DTD SVG 1.1//EN" "http://www.w3.org/Graphics/SVG/1.1/DTD/svg11.dtd">
<svg version="1.1" xmlns="http://www.w3.org/2000/svg" xmlns:xlink="http://www.w3.org/1999/xlink" x="0px" y="0px"
	 viewBox="785 1205 300 500" xml:space="preserve">

<g id="Object">
	
	<g>
		<path fill="#F99D25" d="M827.5,1663.6c36.7,0,107.3,0,107.3,0s70.5,0,107.3,0s48.5,20.1,48.5,35.6H934.8H779
			C779,1683.7,790.8,1663.6,827.5,1663.6z"/>
		<path fill="#622F00" d="M852.9,1618.7h82h82c24.5,0,44.4,20.9,44.4,46.8l-126.4-1.9l-126.4,1.9
			C808.4,1639.7,828.3,1618.7,852.9,1618.7z"/>
		<rect x="872.9" y="1589.9" fill="#F99D25" width="123.8" height="28.9"/>
		<path fill="#622F00" d="M996.7,1589.9c0,0,9.3,2.1,35.1-38.2c25.8-40.2,49.5-92.8,41.3-155.7c-8.3-62.9-56.7-127.4-153.7-120.9
			c-35.1,4.4-39.2,3.9-50.5,0s-27.8-4.9-27.8-4.9s0,15.5,0,18.6s-29.9,7.5-29.9,15.6c0,8.1,19.6,15.3,19.6,23.1
			c0,7.7-7.2,7.5-5.2,17.9c2.1,10.4-42.3,85.2-45.4,94.2c-3.1,9.1,20.6,29.7,27.8,36.9c7.2,7.2,32-4.1,39.2-4.1
			c7.2,0,10.3-13.7,8.3-24.4c-2.1-10.7,4.1-16.9,17.5-17.9c13.4-1,28.9-22.4,36.1-22.1c7.2,0.4,5.2,11.7-6.2,22.1
			s-48.5,55.7-52.6,78.4c-4.1,22.7-8.3,71.2,22.7,81.5H996.7z"/>
		<path fill="#F99D25" d="M780.1,1439.5c3.1-9.1,47.4-83.8,45.4-94.2c-2.1-10.4,5.2-10.2,5.2-17.9c0-7.7-19.6-15-19.6-23.1
			c0-8.1,29.9-12.5,29.9-15.6s0-18.6,0-18.6s16.5,1,27.8,4.9c9.3,3.2,13.8,4.1,34.3,1.9c23.7,10.3,48.1,25.6,62.7,47.9
			c33.7,51.6,67.4,143.3-42.2,265.1h-50.6c-30.9-10.3-26.8-58.8-22.7-81.5c4.1-22.7,41.3-68.1,52.6-78.4
			c11.3-10.3,13.4-21.7,6.2-22.1c-7.2-0.4-22.7,21-36.1,22.1c-13.4,1-19.6,7.2-17.5,17.9c2.1,10.7-1,24.4-8.3,24.4
			c-7.2,0-32,11.3-39.2,4.1C800.7,1469.2,777,1448.6,780.1,1439.5z"/>
	</g>
	
</g>
</svg>
